<svg width="1921" height="915" viewBox="0 0 1921 915" fill="none" xmlns="http://www.w3.org/2000/svg">
<mask id="mask0_0_1" style="mask-type:alpha" maskUnits="userSpaceOnUse" x="-359" y="-916" width="2450" height="4985">
<path d="M1525.46 1702.77L86.1387 4039.31C215.768 3758.07 351.632 3432.91 459.758 3122.47C571.804 2800.77 654.124 2494.72 668.786 2269.7C676.115 2157.22 666.564 2064.71 635.127 2000.57C619.39 1968.47 598.146 1943.43 570.762 1926.61C543.377 1909.79 509.983 1901.26 470.081 1901.95C390.363 1903.34 284.458 1941.53 147.755 2024.32C12.0211 2106.52 -154.286 2232.81 -355.778 2411.12L22.5752 635.974L1525.46 1702.77ZM1021.78 281.076L700.998 799.16L698.913 802.526L702.859 802.206L1192.6 762.494L1524.15 1696.93L24.9697 632.768L958.04 101.428L1021.78 281.076ZM2080.17 1500.82L1530.15 943.583V604.669L2080.17 1500.82ZM1526.15 598.152V939.531L1337.42 748.326L1420.63 426.236L1526.15 598.152ZM1106.48 519.783L1191.21 758.592L706.482 797.899L1023.5 285.907L1106.48 519.783ZM1330.76 747.276L1195.34 758.258L1113.25 526.914L1330.76 747.276ZM1417.72 421.499L1334.14 745.009L1110.1 518.025L1026.19 281.549L1179.68 33.6572L1417.72 421.499ZM1526.15 590.508L1422.02 420.854L1526.15 17.8125V590.508ZM1526.15 1.82129L1419.12 416.116L1182.04 29.8516L1235.58 -56.6172H1235.58V-56.6182L1526.15 -222.084V1.82129ZM1177.34 29.8428L1024.48 276.718L961.571 99.417L1153.1 -9.65039L1177.34 29.8428ZM1151.01 -13.0615L960.213 95.5879L607.409 -898.741L1151.01 -13.0615ZM1179.7 26.0361L1156.58 -11.6309L1228.31 -52.4805L1179.7 26.0361ZM1530.15 -13.6611V-228.964L1527.16 -227.262L1239.98 -63.7266L1760.11 -903.757L1530.15 -13.6611Z" stroke="#FF8700" stroke-width="4" stroke-linecap="round"/>
</mask>
<g mask="url(#mask0_0_1)">
<rect x="-4" y="-1" width="1920" height="914" fill="#FF8700"/>
</g>
</svg>
